<?xml version="1.0" standalone="no"?><!DOCTYPE svg PUBLIC "-//W3C//DTD SVG 1.1//EN" "http://www.w3.org/Graphics/SVG/1.1/DTD/svg11.dtd"><svg t="1757523833718" class="icon" viewBox="0 0 1024 1024" version="1.1" xmlns="http://www.w3.org/2000/svg" p-id="1058" data-spm-anchor-id="a313x.collections_detail.0.i2.7e593a81BO6YWC" xmlns:xlink="http://www.w3.org/1999/xlink" width="200" height="200"><path d="M799.993756 960.312195H223.943805C135.580098 960.312195 63.687805 888.419902 63.687805 800.056195V223.943805C63.687805 135.580098 135.580098 63.687805 223.943805 63.687805h576.049951C888.419902 63.687805 960.312195 135.580098 960.312195 223.943805v576.11239C960.312195 888.419902 888.419902 960.312195 799.993756 960.312195zM223.943805 153.799805c-38.649756 0-70.131512 31.481756-70.131512 70.131512v576.11239c0 38.649756 31.481756 70.131512 70.131512 70.131513h576.049951c38.712195 0 70.193951-31.481756 70.193951-70.131513V223.943805c0-38.649756-31.481756-70.131512-70.193951-70.131512H223.943805z" fill="#020202" p-id="1059" data-spm-anchor-id="a313x.collections_detail.0.i3.7e593a81BO6YWC"></path><path d="M511.962537 505.368976c-80.883512 0-144.234146-65.673366-144.234147-149.454049 0-82.20722 62.026927-144.234146 144.234147-144.234147 79.497366 0 144.234146 64.73678 144.234146 144.234147 0 72.154537-57.943415 149.454049-144.234146 149.454049z m0-203.563708c-32.36839 0-54.109659 21.741268-54.109659 54.109659 0 33.816976 23.252293 59.329561 54.109659 59.329561 31.931317 0 54.109659-31.232 54.109658-59.329561 0.012488-26.012098-20.667317-54.109659-54.109658-54.109659z" fill="#020202" p-id="1060" data-spm-anchor-id="a313x.collections_detail.0.i1.7e593a81BO6YWC"></path><path d="M663.364683 656.771122H360.572878c-24.888195 0-45.056-20.167805-45.056-45.056 0-108.344195 88.113951-196.458146 196.458146-196.458146S708.433171 503.358439 708.433171 611.640195c0 24.888195-20.180293 45.130927-45.068488 45.130927z m-248.057756-90.186927l193.311219 0.062439c-16.658732-36.514341-53.235512-61.277659-96.655609-61.277658s-79.996878 24.763317-96.65561 61.215219zM717.986341 797.98322H305.95122c-24.888195 0-45.056-20.167805-45.056-45.056s20.167805-45.056 45.056-45.056h412.022634c24.888195 0 45.056 20.167805 45.056 45.056s-20.167805 45.056-45.043513 45.056z" fill="#020202" p-id="1061" data-spm-anchor-id="a313x.collections_detail.0.i0.7e593a81BO6YWC"></path></svg>